<svg width="56" height="48" viewBox="0 0 56 48" fill="none" xmlns="http://www.w3.org/2000/svg">
<path d="M29.1425 47.0531C28.5197 47.0531 28.1045 46.6379 28.1045 46.015V21.5177C28.1045 20.8949 28.5197 20.4796 29.1425 20.4796C29.7653 20.4796 30.1805 20.8949 30.1805 21.5177V46.015C30.1805 46.4303 29.7653 47.0531 29.1425 47.0531Z" fill="#F2E8C9"/>
<path d="M44.9205 47.0528C44.5053 47.0528 44.2977 46.8452 44.0901 46.6376L28.3122 22.1403C28.1045 21.725 28.1045 21.1022 28.7274 20.687C29.3502 20.2718 29.7654 20.4794 30.1806 21.1022L45.9586 45.5996C46.1662 46.0148 46.1662 46.6376 45.5434 47.0528C45.3357 46.8452 45.1281 47.0528 44.9205 47.0528Z" fill="#F2E8C9"/>
<path d="M13.5721 47.0529C13.3645 47.0529 13.1569 47.0529 12.9493 46.8453C12.5341 46.6377 12.3265 45.8072 12.5341 45.392L28.312 20.8947C28.5197 20.4795 29.3501 20.2718 29.7653 20.4795C30.1805 20.6871 30.3881 21.5175 30.1805 21.9327L14.4025 46.4301C14.1949 46.8453 13.7797 47.0529 13.5721 47.0529Z" fill="#F2E8C9"/>
<path d="M51.5638 11.9678C51.1486 11.9678 50.7333 11.7602 50.5257 11.345L47.8269 4.70161C47.6193 4.07879 47.8269 3.66359 48.4497 3.45598L49.9029 2.83317C50.9409 2.41796 52.1866 2.41796 53.2246 2.83317C54.2626 3.24838 55.093 4.07879 55.5083 5.32442L55.7159 5.73963C56.5463 8.02329 55.5083 10.5145 53.2246 11.345L51.7714 11.9678H51.5638ZM50.1105 4.90921L51.979 9.68413L52.6018 9.47652C53.8474 9.06131 54.4702 7.60808 53.8474 6.57005L53.6398 6.15484C53.6398 5.32443 53.017 4.90921 52.6018 4.70161C51.979 4.494 51.3562 4.494 50.7333 4.70161L50.1105 4.90921Z" fill="#F2E8C9"/>
<path d="M3.39953 30.4447C3.19192 30.4447 3.19192 30.4447 2.98432 30.4447C2.77672 30.2371 2.56911 30.0294 2.3615 29.8218L0.0778518 23.5937C-0.129753 22.9709 0.0778517 22.5557 0.700666 22.3481L15.0254 16.7427C15.6482 16.5351 16.0634 16.7427 16.271 17.3656L18.5547 23.3861C18.5547 23.5937 18.5547 24.0089 18.5547 24.2165C18.3471 24.4241 18.1395 24.6317 17.9319 24.8393L3.60713 30.4447C3.60713 30.4447 3.60713 30.4447 3.39953 30.4447ZM2.3615 23.8013L4.02234 27.9534L16.4786 23.1785L14.8178 19.0264L2.3615 23.8013Z" fill="#F5D15F"/>
<path d="M18.3471 26.5C18.1395 26.5 18.1395 26.5 17.9319 26.5C17.7243 26.2924 17.5167 26.0848 17.3091 25.8772L13.5722 16.535C13.3646 15.9121 13.5722 15.4969 14.1951 15.2893L28.5198 9.68399C28.7274 9.68399 29.1426 9.68399 29.3502 9.68399C29.5578 9.8916 29.7654 10.0992 29.973 10.3068L33.7099 19.649C33.9175 20.2718 33.7099 20.687 33.0871 20.8947L18.7624 26.5C18.7624 26.5 18.5548 26.5 18.3471 26.5ZM16.0635 16.535L18.97 24.0087L31.4263 19.2338L28.5198 11.76L16.0635 16.535Z" fill="#F5D15F"/>
<path d="M33.5022 22.5556C33.087 22.5556 32.6718 22.348 32.4642 21.9328L27.4817 9.06129C27.4817 8.85368 27.4817 8.43847 27.4817 8.23087C27.6893 8.02326 27.8969 7.81566 28.1045 7.60805L47.4118 0.134277C47.6194 0.134277 48.0346 0.134277 48.2422 0.134277C48.4498 0.341882 48.6574 0.549487 48.865 0.757092L53.8475 13.6286C54.0551 14.2514 53.8475 14.6666 53.2247 14.8742L33.9174 22.348C33.7098 22.5556 33.5022 22.5556 33.5022 22.5556ZM29.7653 9.26889L33.9174 20.0643L51.1486 13.421L46.9965 2.62554L29.7653 9.26889Z" fill="#F5D15F"/>
</svg>
