<svg width="56" height="57" viewBox="0 0 56 57" fill="none" xmlns="http://www.w3.org/2000/svg">
<path d="M22.225 52.2187C22.05 52.2187 21.7 52.0437 21.525 52.0437L15.75 46.2687C15.4 45.9187 15.4 45.3937 15.75 45.0436L18.725 41.1937L15.225 37.6937L11.55 40.8437C11.2 41.1937 10.675 41.0187 10.325 40.8437L4.54998 35.0687C4.37498 34.8937 4.19998 34.5437 4.37498 34.1937C4.54998 33.8437 4.72498 33.6686 4.89998 33.4936L18.55 28.4186C18.9 28.2436 19.25 28.4186 19.425 28.5936L27.825 36.9936C28 37.1686 28.175 37.5186 28 37.8686L22.925 51.5187C22.75 51.8687 22.575 52.0437 22.225 52.0437C22.4 52.2187 22.225 52.2187 22.225 52.2187ZM17.675 45.5687L21.875 49.7687L26.25 38.0436L18.725 30.3436L6.99998 34.7186L11.2 38.9186L15.05 35.9437C15.225 35.5937 15.75 35.5937 16.1 35.9437L20.65 40.4936C21 40.8436 21 41.3687 20.65 41.7187L17.675 45.5687Z" fill="#F5D15F"/>
<path d="M12.9498 50.9937C12.7748 50.9937 12.4248 50.8187 12.2498 50.8187L5.77483 44.3437C5.59983 44.1687 5.42483 43.9937 5.59983 43.6437C5.59983 43.4687 5.77483 43.1187 5.94983 42.9437L14.8748 35.9437C15.2248 35.5937 15.7498 35.5937 16.0998 35.9437L20.6498 40.4937C20.9998 40.8437 20.9998 41.3687 20.6498 41.7187L13.6498 50.6437C13.4748 50.8187 13.2998 50.9937 12.9498 50.9937ZM7.87483 43.6437L12.9498 48.7187L18.8998 41.1937L15.3998 37.6937L7.87483 43.6437Z" fill="#F2E8C9"/>
<path d="M27.2999 38.5687C27.1249 38.5687 26.7749 38.5687 26.5999 38.3937L18.1999 29.9937C18.0249 29.8187 18.0249 29.6437 18.0249 29.2937C18.0249 28.9437 18.1999 28.7687 18.1999 28.5937L40.0749 6.89366C41.4749 5.49366 43.5749 4.79366 45.6749 4.96866L50.3999 5.49366C50.7499 5.49366 51.0999 5.84366 51.0999 6.19366L51.6249 10.9187C51.7999 13.0187 51.0999 14.9437 49.6999 16.5187L27.8249 38.3937C27.6499 38.5687 27.4749 38.5687 27.2999 38.5687ZM20.1249 29.2937L27.2999 36.4687L48.4749 15.2937C49.5249 14.2437 50.0499 12.6687 49.8749 11.0937L49.3499 7.06866L45.3249 6.54366C43.7499 6.36866 42.3499 6.89366 41.1249 7.94366L20.1249 29.2937Z" fill="#F5D15F"/>
<path d="M37.45 16.3437C37.275 16.3437 36.925 16.1687 36.75 15.9937C36.4 15.6437 36.4 15.1187 36.75 14.7687L40.25 11.6187C40.6 11.2687 41.125 11.2687 41.475 11.6187C41.825 11.9687 41.825 12.4937 41.475 12.8437L37.975 15.9937C37.975 16.3437 37.8 16.3437 37.45 16.3437Z" fill="#F2E8C9"/>
</svg>
