<svg width="57" height="57" viewBox="0 0 57 57" fill="none" xmlns="http://www.w3.org/2000/svg">
<path d="M50.7632 18.9686H28.0132C27.4882 18.9686 27.1382 18.6186 27.1382 18.0936V5.84363C27.1382 5.31863 27.4882 4.96863 28.0132 4.96863H50.7632C51.2882 4.96863 51.6382 5.31863 51.6382 5.84363V18.0936C51.6382 18.6186 51.2882 18.9686 50.7632 18.9686ZM28.8882 17.2186H49.8882V6.71863H28.8882V17.2186Z" fill="#F2E8C9"/>
<path d="M35.0132 11.4436H28.0132C27.4882 11.4436 27.1382 11.0936 27.1382 10.5686V5.84363C27.1382 5.31863 27.4882 4.96863 28.0132 4.96863H35.0132C35.5382 4.96863 35.8882 5.31863 35.8882 5.84363V10.5686C35.8882 11.0936 35.5382 11.4436 35.0132 11.4436ZM28.8882 9.69363H34.1382V6.71863H28.8882V9.69363Z" fill="#F2E8C9"/>
<path d="M50.0631 52.2186H5.78809C5.43809 52.2186 5.26309 52.0436 5.08809 51.8686C4.91309 51.6936 4.91309 51.3436 4.91309 51.1686C7.53809 40.4936 16.9881 32.9686 28.0131 32.9686C39.0381 32.9686 48.4881 40.4936 51.1131 51.1686C51.1131 51.3436 51.1131 51.6936 50.9381 51.8686C50.5881 52.0436 50.4131 52.2186 50.0631 52.2186ZM7.01309 50.4686H49.0131C46.3881 41.1936 37.8131 34.7186 28.0131 34.7186C18.2131 34.7186 9.63809 41.1936 7.01309 50.4686Z" fill="#F5D15F"/>
<path d="M14.3632 45.2186C14.1882 45.2186 14.0132 45.2186 13.8382 45.0436C13.4882 44.6936 13.4882 44.1686 13.8382 43.8186C16.2882 41.0186 19.4382 38.9186 22.9382 37.5186C23.4632 37.3436 23.8132 37.5186 23.9882 38.0436C24.1632 38.5686 23.9882 38.9186 23.4632 39.0936C20.3132 40.3186 17.3382 42.4186 15.0632 44.8686C14.7132 45.0436 14.5382 45.2186 14.3632 45.2186Z" fill="#F2E8C9"/>
<path d="M28.0132 34.7186C27.4882 34.7186 27.1382 34.3686 27.1382 33.8436V5.84363C27.1382 5.31863 27.4882 4.96863 28.0132 4.96863C28.5382 4.96863 28.8882 5.31863 28.8882 5.84363V33.8436C28.8882 34.3686 28.5382 34.7186 28.0132 34.7186Z" fill="#F5D15F"/>
</svg>
