<svg width="1440" height="89" viewBox="0 0 1440 89" fill="none" xmlns="http://www.w3.org/2000/svg">
<path d="M115.735 50.4007C114.579 50.2062 113.822 49.9728 113.335 49.5837C112.857 49.2141 112.399 48.4748 112.399 48.0857C112.397 47.8912 112.379 47.8912 112.199 48.0857C112 48.2803 112 48.2803 112 47.8912C112 47.6967 112 47.5799 112 47.5799C112 47.5877 116.986 47.5877 122.967 47.5799L133.843 47.5663L134.56 46.866V45.2124C134.56 43.6367 134.546 43.5394 134.261 43.2242L133.962 42.8935H124.962C115.99 42.8935 115.96 42.8935 115.137 42.5628C114.101 42.2127 113.443 41.629 113.184 40.7731C112.925 39.9366 112.825 37.5165 112.965 36.1431C113.164 34.9175 113.343 34.295 113.921 33.7794C115.037 32.7679 115.535 32.7289 125.632 32.7289C134.092 32.7309 135.052 32.7289 136.262 33.1569C137.378 33.5071 138.544 34.6549 138.363 35.2054V35.4583H118.148L117.849 35.7501C117.57 36.0225 117.55 36.1003 117.55 37.6177C117.552 38.9794 117.55 39.2323 117.79 39.4852L118.029 39.777H126.843C134.506 39.777 135.756 39.777 136.42 40.0494C137.854 40.419 138.412 40.8275 138.893 41.8391C139.152 42.4033 139.172 42.5589 139.172 45.086C139.172 48.2161 139.172 48.6635 138.215 49.4339C137.617 49.9591 136.9 50.2315 135.594 50.4066C134.478 50.6011 116.574 50.6011 115.563 50.3988L115.735 50.4007ZM147.472 50.4007C147.472 50.4007 147.472 46.4575 147.472 41.7341V33.1472L147.751 32.8943L148.03 32.6219H170.768L171.585 32.8943C172.621 33.2445 173.279 33.8086 173.578 34.5284C173.777 35.0148 173.797 35.4622 173.797 37.925V40.7614L173.478 41.4034C172.92 42.4928 171.884 42.9791 169.722 43.1737C168.964 43.1737 164.97 43.3682 160.833 43.3682L153.308 43.3702L152.67 44.1094V50.4727H150.145C148.75 50.4727 147.588 50.4727 147.544 50.4727L147.472 50.4007ZM167.705 40.3879C168.502 40.0377 168.641 39.707 168.641 37.9309C168.641 36.5886 168.622 36.394 168.382 36.1022C167.844 35.4019 168.063 35.4213 160.325 35.3824H153.226L152.907 35.7521C152.588 36.1217 152.588 36.1411 152.588 38.0126V39.8996L153.425 40.7167H160.303C166.712 40.7167 167.215 40.7167 167.697 40.4638L167.705 40.3879ZM193.934 48.8542C193.037 47.648 192.579 47.1228 192.12 46.8446L191.522 46.4555H183.73C179.389 46.4555 175.958 46.4555 175.981 46.261C176.001 46.261 176.52 45.5606 177.117 44.8409L178.214 43.5375L183.551 43.5316C188.744 43.5277 188.896 43.5199 189.111 43.2787C189.549 42.7924 189.43 42.52 187.048 39.1428C185.793 37.3531 184.762 35.7987 184.758 35.6859C184.75 35.4525 187.1 32.5383 187.293 32.5364C187.293 32.5364 191.333 37.6352 199.247 48.0274L201.041 50.3696H195.152L193.936 48.755L193.934 48.8542ZM212.225 50.4105C210.671 50.2159 209.577 49.8463 209.114 49.3405C208.915 49.146 208.775 48.8542 208.636 48.5235L208.357 47.9398V35.1762L208.716 34.4759C209.154 33.6199 209.712 33.2114 210.832 32.9196C211.55 32.7251 212.426 32.7056 221.61 32.7056H231.599L232.475 32.9779C232.994 33.1725 233.532 33.4059 233.791 33.6199C234.249 34.0285 234.668 34.7677 234.668 35.2151L234.672 35.4875H224.496C215.607 35.4875 214.272 35.4875 213.959 35.682L213.6 35.8766V46.9594L214.358 47.5819H234.56V47.9126C234.56 48.5157 233.982 49.4495 233.384 49.7802C232.188 50.4611 232.308 50.4416 222.028 50.4805C216.835 50.4941 212.418 50.4844 212.219 50.4805L212.225 50.4105ZM243.241 50.4066C243.241 50.4066 243.241 47.7297 243.241 44.5549V38.7849H259.95V41.5084H249.222L248.584 42.1699V47.1345L249.262 47.757H268.137V50.4027H255.741C248.927 50.4027 243.311 50.4027 243.267 50.4027L243.241 50.4066ZM243.16 32.6375H268.346V35.5945H243.16V32.6375ZM115.852 50.4883C114.437 50.2743 113.792 50.0603 113.182 49.5934C112.783 49.2822 112.185 48.2511 112.126 47.7648V47.473H122.963C128.922 47.4574 133.92 47.473 134.07 47.473C134.568 47.2784 134.708 46.8504 134.708 45.1755C134.708 43.7942 134.688 43.5997 134.468 43.4052C134.269 43.2106 134.11 43.1328 133.95 43.1134C133.751 43.1134 129.751 43.1134 124.956 43.1134H116.239L115.422 42.841C114.306 42.4714 113.628 41.8294 113.323 40.8684C113.044 39.9735 113.004 36.2773 113.323 35.2871C113.662 33.9448 114.559 33.2698 116.434 32.9527C117.909 32.6998 134.084 32.6998 135.507 32.9429C136.683 33.1375 137.4 33.4487 138.076 34.0713C138.733 34.6549 138.972 35.1412 138.773 35.4914L138.574 35.7443H128.47C118.525 35.7443 118.359 35.7482 118.12 35.9777C117.901 36.1917 117.881 36.3668 117.881 37.7286C117.881 39.0903 117.901 39.2849 118.14 39.5572L118.399 39.8685L126.291 39.8704C130.632 39.8724 134.698 39.8704 135.331 40.065C136.986 40.2595 137.978 40.5513 138.582 41.1349C139.399 41.9325 139.519 42.4189 139.519 45.442C139.519 47.6772 139.519 48.1305 139.299 48.6771C138.861 49.9027 137.844 50.5253 135.867 50.8365C135.19 51.031 132.34 51.031 126.086 51.031C118.168 51.031 117.108 51.033 115.916 50.8365L115.852 50.4883ZM147.273 41.9111L147.267 33.1025L147.905 32.5188H170.684L171.521 32.7912C172.538 33.1219 173.315 33.7833 173.622 34.5615C173.821 35.0478 173.841 35.4953 173.841 38.0087C173.841 40.8061 173.831 40.9229 173.562 41.4656C172.984 42.5939 171.868 43.1387 169.658 43.3332C168.96 43.3332 164.98 43.5277 160.807 43.5277L153.22 43.5316L152.961 43.8429C152.722 44.1541 152.702 44.2514 152.742 47.4477V50.7373H147.237L147.233 41.9267L147.273 41.9111ZM167.631 40.2965C168.408 39.9463 168.508 39.6545 168.508 37.9581C168.508 36.324 168.508 36.0711 167.81 35.7384C167.452 35.5439 166.834 35.5244 160.365 35.505H153.312L153.013 35.7968C152.714 36.0886 152.714 36.1275 152.714 37.9737V39.8607L153.591 40.5999H160.391C166.425 40.5999 167.238 40.5999 167.633 40.3665L167.631 40.2965ZM195.002 50.6284C195.02 50.6284 194.484 49.7918 193.806 48.8775C192.79 47.4963 192.471 47.1656 191.973 46.8991L191.375 46.5878H183.551C179.25 46.5878 175.728 46.5878 175.728 46.5878C175.728 46.5878 176.286 45.868 176.964 45.051L178.2 43.5919H188.938L189.137 43.2418C189.336 42.9499 189.336 42.8332 189.137 42.6192C189.137 42.4247 188.001 40.9268 186.773 39.1837C185.558 37.4329 184.553 35.9408 184.553 35.8532C184.553 35.8532 185.151 34.9778 185.908 34.0829C187.204 32.5266 187.264 32.4683 187.463 32.6822C187.662 32.8768 190.681 36.8376 194.354 41.6465C198.027 46.4575 201.114 50.4863 201.21 50.5992C201.409 50.7937 201.216 50.8132 198.175 50.8132C196.421 50.8132 194.98 50.8132 194.998 50.8132L195.002 50.6284ZM213.12 50.6284C213.1 50.6284 212.602 50.4338 212.044 50.4338C209.989 50.1809 209.066 49.6751 208.524 48.5079L208.245 47.8854V41.5629C208.245 35.8182 208.265 35.184 208.464 34.6412C208.724 33.8825 209.401 33.2406 210.218 32.9293C211.434 32.4819 212.48 32.443 222.305 32.4819C232.659 32.4819 232.38 32.4819 233.615 33.2406C234.233 33.6102 234.871 34.6412 234.811 35.1665V35.4583H224.508C216.02 35.4583 214.166 35.4583 214.003 35.6723C213.804 35.8668 213.804 36.3532 213.804 41.2341V46.6345L214.481 47.257H234.749V47.5877C234.749 48.93 233.673 49.9261 231.889 50.2062C231.431 50.2062 230.754 50.4007 230.395 50.4591C229.757 50.6536 213.287 50.6536 213.18 50.4591L213.12 50.6284ZM243.072 44.6813L243.092 38.6837H259.99V41.5629H249.134L248.895 41.8352C248.676 42.0881 248.656 42.3216 248.656 44.5296C248.656 46.936 248.658 46.9458 248.955 47.2356L249.254 47.5274H258.571C263.697 47.5274 267.98 47.5274 268.087 47.5274C268.287 47.5274 268.287 47.8192 268.287 49.0643L268.269 50.5233H243.116V44.5238L243.072 44.6813ZM243.092 35.5206C243.092 35.5206 243.092 34.723 243.072 33.9643V32.5441H268.44V35.7345H255.781C245.467 35.7345 243.114 35.7345 243.064 35.54L243.092 35.5206ZM115.936 50.5603C114.103 50.3268 113.018 49.7821 112.504 48.8483C112.026 47.9924 111.966 47.5449 112.265 47.3893C112.464 47.3893 115.882 47.1948 123.346 47.1948H134.183L134.383 46.9419C134.642 46.5722 134.662 43.5841 134.399 43.2379C134.199 43.0239 133.96 43.0044 125.349 42.9461C115.878 42.9461 115.83 42.9461 114.653 42.2652C114.015 41.9539 113.696 41.6038 113.357 40.884C113.098 40.3198 113.078 40.1642 113.078 37.6255V34.9583L113.437 34.258C113.915 33.3631 114.593 32.8768 115.888 32.585C116.745 32.3904 117.562 32.371 125.907 32.371C134.142 32.371 135.06 32.371 135.804 32.585C136.82 32.8379 137.518 33.188 138.054 33.6549C138.731 34.2775 138.99 35.0362 138.652 35.3669C138.452 35.5614 136.117 35.5614 128.474 35.5614C121.789 35.5614 118.363 35.5614 118.206 35.7559C117.987 35.9505 117.967 36.0283 117.967 37.5068C117.967 39.0242 117.987 39.1604 118.226 39.3549C118.465 39.5689 118.844 39.5883 127.397 39.6467C134.955 39.6467 136.408 39.6467 136.92 39.8996C138.135 40.2692 138.793 40.7556 139.184 41.631C139.622 42.5648 139.762 45.158 139.523 47.2667C139.303 49.1538 138.646 49.928 136.778 50.4358C135.842 50.6887 135.722 50.6887 126.269 50.7081C121.008 50.7198 116.361 50.7081 115.94 50.7081L115.936 50.5603ZM147.271 41.7711V32.8573L147.69 32.6044C148.088 32.3515 148.168 32.3515 158.619 32.3515C165.176 32.3515 169.52 32.3515 170.146 32.5461C171.461 32.7406 172.386 33.0519 173.024 33.6355C173.881 34.3942 173.941 34.7444 173.901 38.2538V41.2536L173.542 41.8372C173.124 42.4986 172.247 43.0822 171.324 43.3157C170.905 43.5102 168.388 43.5102 162.087 43.5297C153.78 43.5297 153.401 43.5297 153.158 43.8215C152.919 44.0355 152.899 44.1327 152.899 47.3971V50.747H147.329V41.8333L147.271 41.7711ZM167.304 40.2731C167.603 40.2731 167.962 40.0202 168.121 39.8451C168.38 39.5728 168.4 39.4172 168.44 38.1721C168.44 36.4796 168.241 36.0127 167.643 35.7054C167.224 35.5108 166.547 35.5108 160.243 35.5108H153.302L153.063 35.7832C152.863 36.0361 152.823 36.2695 152.823 37.9464V39.8335L153.461 40.4171H160.11C164.536 40.4171 166.932 40.4171 167.284 40.2225L167.304 40.2731ZM193.824 49.0137C192.947 47.8076 192.469 47.2628 192.07 47.0119L191.532 46.6812L183.636 46.6792C178.656 46.6773 175.718 46.6792 175.673 46.4847C175.673 46.2902 177.566 43.9246 178.06 43.4985C178.279 43.304 178.738 43.2846 183.608 43.2846C188.882 43.2846 188.922 43.2826 189.057 43.0317C189.057 42.8371 189.256 42.7009 189.057 42.5842C189.057 42.3897 187.961 40.9112 186.686 39.0845C185.41 37.2753 184.368 35.719 184.368 35.6451C184.368 35.4311 187.042 32.2854 187.216 32.2854C187.415 32.2854 200.861 49.8074 201.246 50.4572C201.246 50.6517 200.668 50.6517 198.145 50.6517L194.96 50.6459L193.745 48.9923L193.824 49.0137ZM211.649 50.4922C209.776 50.2004 208.881 49.6362 208.385 48.4359C208.126 47.7939 208.106 47.6578 208.066 42.0667C208.066 36.1119 208.084 35.0926 208.524 34.2561C209.062 33.2445 210.198 32.6609 212.078 32.4858C213.572 32.2912 229.713 32.2912 231.088 32.4897C232.324 32.6842 233.324 32.9371 233.894 33.3651C234.353 33.7152 234.931 34.7463 234.931 35.2326V35.5633H224.755C213.957 35.5633 214.029 35.5614 213.815 36.1081C213.815 36.3026 213.815 38.6254 213.815 41.4695V46.6364L214.493 47.259H224.633C236.045 47.259 235.052 47.259 234.779 48.1927C234.421 49.5545 233.464 50.214 231.431 50.5097C229.737 50.7626 213.345 50.7431 211.723 50.5019L211.649 50.4922ZM243.068 44.6191V38.5631H260.02V41.5785H254.647C249.392 41.5785 249.264 41.5824 248.951 41.8314L248.632 42.0843V47.1306L248.951 47.3835C249.27 47.6169 249.35 47.6364 258.683 47.6364C267.426 47.6364 268.105 47.65 268.179 47.8309C268.179 48.0254 268.179 48.6285 268.179 49.3678L268.159 50.7101H242.879V44.6522L243.068 44.6191ZM243.092 35.6256C243.092 35.6256 243.092 34.7891 243.072 33.9331V32.3963H268.5V35.7034H255.813C245.455 35.7034 243.116 35.7054 243.066 35.5089L243.092 35.6256ZM115.649 50.5408C113.756 50.2879 112.596 49.5292 112.221 48.2686C112.022 47.7239 112.022 47.5488 112.221 47.4126C112.421 47.2181 113.875 47.2181 123.24 47.2181H134.114L134.373 46.9068C134.592 46.6345 134.632 46.44 134.632 45.0977C134.632 43.7942 134.632 43.5608 134.393 43.3079L134.154 43.0356H125.213C115.964 43.0356 115.769 43.0355 114.778 42.4519C113.303 41.7127 112.845 40.3665 112.985 37.0671C112.985 34.933 113.264 34.2989 114.041 33.5635C114.679 32.9604 115.296 32.7075 116.652 32.513C117.21 32.513 120.548 32.3185 126.521 32.513C135.497 32.513 135.539 32.513 136.342 32.8048C137.418 33.155 138.235 33.7191 138.666 34.4C138.984 34.9058 139.004 34.9836 138.865 35.3143L138.666 35.6645H128.599C119.681 35.6645 118.499 35.6645 118.262 35.859C118.003 36.0536 117.983 36.1314 117.983 37.5515C117.983 38.6604 117.983 39.1273 118.182 39.2829C118.381 39.4969 118.621 39.5164 127.17 39.5747C136.515 39.5747 136.752 39.5747 137.902 40.2361C139.317 40.9365 139.676 41.9675 139.676 45.2611C139.676 48.4437 139.317 49.4358 137.862 50.1576C136.726 50.7217 136.726 50.7217 126.299 50.7606C120.906 50.7743 116.129 50.7606 115.683 50.7606L115.649 50.5408ZM147.152 41.8177L147.148 32.9663L147.905 32.3438H170.7L171.517 32.6161C172.574 32.9663 173.271 33.4915 173.664 34.2308C173.963 34.8144 173.983 34.8338 173.983 37.7772C173.983 41.0727 173.983 41.3411 173.225 42.1154C172.707 42.6601 172.149 42.9713 171.117 43.2437C170.439 43.4382 169.323 43.4382 161.879 43.4966C153.451 43.4966 153.403 43.4966 153.132 43.7884C152.853 44.0413 152.853 44.0608 152.853 47.327V50.6167H147.169L147.163 41.7633L147.152 41.8177ZM167.629 40.1253C167.868 39.9307 168.127 39.814 168.207 39.6973C168.207 39.5027 168.406 38.8024 168.406 37.927C168.406 36.1761 168.207 35.8843 167.47 35.6626C167.191 35.6626 164.51 35.468 160.223 35.468L153.421 35.4661L153.162 35.7773C152.923 36.0691 152.903 36.2442 152.903 37.855V39.6253L153.621 40.3256H160.433C166.479 40.3256 167.294 40.3256 167.689 40.0922L167.629 40.1253ZM193.804 49.037C192.947 47.8698 192.429 47.3056 192.011 47.0275L191.433 46.6384H183.515C177.183 46.6384 175.601 46.6384 175.601 46.4439C175.601 46.2493 177.195 44.302 177.873 43.6114L178.192 43.2807H183.471C187.417 43.2807 188.79 43.2807 188.898 43.0861C189.237 42.7554 188.898 42.308 186.686 39.0106C184.852 36.394 184.352 35.5945 184.44 35.4447C184.719 34.9583 187.146 32.1784 187.291 32.1784C187.291 32.1784 190.572 36.2462 194.378 41.2186C198.185 46.191 201.356 50.3268 201.421 50.4085C201.421 50.6031 200.863 50.6031 198.273 50.6031H195.004L193.808 48.9689L193.804 49.037ZM211.701 50.535C209.515 50.2626 208.474 49.4261 208.171 47.7297C207.972 47.185 207.972 45.119 207.972 40.9637V34.9856L208.331 34.2852C208.59 33.7794 208.849 33.4876 209.288 33.1958C210.543 32.3593 210.962 32.3399 221.472 32.3399C231.355 32.3438 231.991 32.3399 233.157 32.9235C233.456 33.118 233.894 33.3904 234.134 33.6627C234.632 34.2269 234.991 35.2385 234.791 35.4719C234.592 35.6665 232.838 35.6665 224.4 35.6665C214.613 35.6665 214.13 35.6762 213.939 35.8805C213.74 36.075 213.74 36.6391 213.74 41.4267V46.7571L214.059 47.01C214.377 47.2434 214.437 47.2629 224.534 47.2629H234.688L234.686 47.6519C234.686 48.3328 234.427 48.9359 233.948 49.4611C233.35 50.0836 232.573 50.3949 231.164 50.57C229.968 50.7645 212.747 50.7645 211.589 50.5661L211.701 50.535ZM242.952 44.6055L242.972 38.5495H251.502C258.242 38.5495 260.048 38.5515 260.126 38.744C260.325 38.958 260.325 41.2925 260.126 41.559C259.926 41.773 259.807 41.7925 254.639 41.7925H249.276L249.017 42.0648C248.758 42.3372 248.758 42.4344 248.758 44.7027C248.758 47.0236 248.764 47.0742 249.037 47.3251L249.316 47.578H258.697C265.833 47.578 268.113 47.578 268.225 47.7725C268.225 47.7725 268.424 48.3951 268.424 49.3678V50.8268H243.002V44.7689L242.952 44.6055ZM242.972 35.6159C242.972 35.6159 242.972 34.7794 242.952 33.9234V32.3866H268.5V35.6937H255.751C245.346 35.6937 242.994 35.6956 242.944 35.4992L242.972 35.6159ZM115.649 50.5311C113.756 50.2782 112.596 49.5195 112.221 48.2589C112.022 47.7142 112.022 47.5391 112.221 47.4029C112.421 47.2084 113.875 47.2084 123.24 47.2084H134.114L134.373 46.8971C134.592 46.6248 134.632 46.4302 134.632 45.0879C134.632 43.7845 134.632 43.5511 134.393 43.2982L134.154 43.0258H125.213C115.964 43.0258 115.769 43.0258 114.778 42.4422C113.303 41.703 112.845 40.3568 112.985 37.0574C112.985 34.9233 113.264 34.2891 114.041 33.5538C114.679 32.9507 115.296 32.6978 116.652 32.5033C117.21 32.5033 120.548 32.3087 126.521 32.5033C135.497 32.5033 135.539 32.5033 136.342 32.7951C137.418 33.1453 138.235 33.7094 138.666 34.3903C138.984 34.8961 139.004 34.9739 138.865 35.3046L138.666 35.6548H128.599C119.681 35.6548 118.499 35.6548 118.262 35.8493C118.003 36.0439 117.983 36.1217 117.983 37.5418C117.983 38.6507 117.983 39.1176 118.182 39.2732C118.381 39.4872 118.621 39.5066 127.17 39.565C136.515 39.565 136.752 39.565 137.902 40.2264C139.317 40.9268 139.676 41.9578 139.676 45.2513C139.676 48.434 139.317 49.4261 137.862 50.1478C136.726 50.712 136.726 50.712 126.299 50.7509C120.906 50.7645 116.129 50.7509 115.683 50.7509L115.649 50.5311ZM147.152 41.808L147.148 32.9565L147.905 32.334H170.7L171.517 32.6064C172.574 32.9565 173.271 33.4818 173.664 34.221C173.963 34.8047 173.983 34.8241 173.983 37.7675C173.983 41.0629 173.983 41.3314 173.225 42.1057C172.707 42.6504 172.149 42.9616 171.117 43.234C170.439 43.4285 169.323 43.4285 161.879 43.4869C153.451 43.4869 153.403 43.4869 153.132 43.7787C152.853 44.0316 152.853 44.051 152.853 47.3173V50.607H147.169L147.163 41.7535L147.152 41.808ZM167.629 40.1155C167.868 39.921 168.127 39.8043 168.207 39.6876C168.207 39.493 168.406 38.7927 168.406 37.9173C168.406 36.1664 168.207 35.8746 167.47 35.6528C167.191 35.6528 164.51 35.4583 160.223 35.4583L153.421 35.4564L153.162 35.7676C152.923 36.0594 152.903 36.2345 152.903 37.8453V39.6156L153.621 40.3159H160.433C166.479 40.3159 167.294 40.3159 167.689 40.0825L167.629 40.1155ZM193.804 49.0273C192.947 47.8601 192.429 47.2959 192.011 47.0177L191.433 46.6287H183.515C177.183 46.6287 175.601 46.6287 175.601 46.4341C175.601 46.2396 177.195 44.2923 177.873 43.6017L178.192 43.2709H183.471C187.417 43.2709 188.79 43.2709 188.898 43.0764C189.237 42.7457 188.898 42.2982 186.686 39.0008C184.852 36.3843 184.352 35.5848 184.44 35.435C184.719 34.9486 187.146 32.1687 187.291 32.1687C187.291 32.1687 190.572 36.2365 194.378 41.2088C198.185 46.1812 201.356 50.3171 201.421 50.3988C201.421 50.5933 200.863 50.5933 198.273 50.5933H195.004L193.808 48.9592L193.804 49.0273ZM211.701 50.5252C209.515 50.2529 208.474 49.4164 208.171 47.72C207.972 47.1753 207.972 45.1093 207.972 40.954V34.9759L208.331 34.2755C208.59 33.7697 208.849 33.4779 209.288 33.1861C210.543 32.3496 210.962 32.3301 221.472 32.3301C231.355 32.334 231.991 32.3301 233.157 32.9137C233.456 33.1083 233.894 33.3806 234.134 33.653C234.632 34.2172 234.991 35.2287 234.791 35.4622C234.592 35.6567 232.838 35.6567 224.4 35.6567C214.613 35.6567 214.13 35.6665 213.939 35.8707C213.74 36.0653 213.74 36.6294 213.74 41.417V46.7473L214.059 47.0002C214.377 47.2337 214.437 47.2531 224.534 47.2531H234.688L234.686 47.6422C234.686 48.3231 234.427 48.9261 233.948 49.4514C233.35 50.0739 232.573 50.3852 231.164 50.5603C229.968 50.7548 212.747 50.7548 211.589 50.5564L211.701 50.5252ZM242.952 44.5957L242.972 38.5398H251.502C258.242 38.5398 260.048 38.5417 260.126 38.7343C260.325 38.9483 260.325 41.2828 260.126 41.5493C259.926 41.7633 259.807 41.7827 254.639 41.7827H249.276L249.017 42.0551C248.758 42.3274 248.758 42.4247 248.758 44.693C248.758 47.0138 248.764 47.0644 249.037 47.3154L249.316 47.5683H258.697C265.833 47.5683 268.113 47.5683 268.225 47.7628C268.225 47.7628 268.424 48.3853 268.424 49.358V50.8171H243.002V44.7591L242.952 44.5957ZM242.972 35.6061C242.972 35.6061 242.972 34.7696 242.952 33.9137V32.3768H268.5V35.684H255.751C245.346 35.684 242.994 35.6859 242.944 35.4894L242.972 35.6061ZM115.549 50.533C113.553 50.2801 112.506 49.5214 112.147 48.1208C111.948 47.5761 111.948 47.5371 112.347 47.3232C112.606 47.1092 113.124 47.1092 123.439 47.1092C134.012 47.1092 134.261 47.1033 134.383 46.8757C134.383 46.6812 134.582 45.903 134.582 44.9887C134.582 43.5102 134.562 43.3157 134.363 43.2184C134.164 43.2184 130.728 43.0239 125.434 43.0239C115.773 43.0239 115.701 43.0239 114.517 42.1874C113.281 41.3703 113.082 40.7672 113.082 37.6177C113.082 34.828 113.281 34.2424 113.979 33.4915C114.537 32.9468 115.075 32.6939 116.203 32.441C116.98 32.2465 118.116 32.2465 125.977 32.2465C134.215 32.2426 134.945 32.2582 135.842 32.4605C137.037 32.7328 137.815 33.1414 138.448 33.8028C138.986 34.3864 139.146 34.7949 138.947 35.2229L138.747 35.5147H128.763C122.571 35.5147 118.662 35.5147 118.469 35.7093L118.15 35.9038V37.5379C118.15 38.9775 118.15 39.2109 118.369 39.3666C118.569 39.5611 119.326 39.5611 126.835 39.5611C132.063 39.5611 135.423 39.5611 136.019 39.7556C137.833 40.0085 138.841 40.5921 139.383 41.7458C139.602 42.2321 139.642 42.5434 139.682 44.8506C139.702 46.4847 139.672 47.65 139.682 48.0702C139.343 49.6265 138.167 50.5136 136.109 50.7353C134.853 50.9299 116.741 50.9299 115.707 50.7373L115.549 50.533ZM147.15 41.7925V32.9332L147.429 32.6803C147.628 32.4858 147.827 32.3885 147.987 32.3301C148.345 32.1356 167.282 32.1356 169.345 32.336C171.826 32.5305 173.034 33.0363 173.715 34.2833C173.955 34.7307 173.975 34.9447 174.014 37.6332C174.014 40.8431 174.014 41.3956 173.317 42.1737C173.118 42.4072 172.659 42.7574 172.3 42.913C171.025 43.5161 170.447 43.555 161.632 43.555C154.488 43.5589 153.485 43.555 153.248 43.7495C152.989 43.944 152.969 43.9635 152.969 47.1092C152.969 48.86 152.969 50.3677 152.969 50.4688C152.969 50.6634 152.53 50.6634 150.061 50.6634H147.231V41.8041L147.15 41.7925ZM167.392 40.1194C168.189 39.9054 168.329 39.5942 168.329 37.9892C168.329 36.3746 168.329 36.0828 167.691 35.7871C167.332 35.5925 166.774 35.5731 160.411 35.5342C154.32 35.5342 153.493 35.5206 153.236 35.7287C152.957 35.9232 152.957 35.9427 152.957 37.8608C152.957 39.6506 152.977 39.8276 153.196 40.0455C153.435 40.2789 153.595 40.2789 160.189 40.2789C164.442 40.2789 167.103 40.279 167.386 40.0844L167.392 40.1194ZM194.155 49.5506C193.697 48.9475 193.139 48.1889 192.9 47.8581C192.621 47.4885 192.222 47.1383 191.863 46.9438L191.265 46.6325H183.367C176.294 46.6325 175.479 46.6131 175.543 46.438C175.543 46.2435 176.161 45.6015 176.838 44.7844L178.074 43.306H183.375C188.037 43.306 188.702 43.3059 188.87 43.1114C189.069 42.9169 189.069 42.8391 189.069 42.7223C189.069 42.5278 188.033 41.0299 186.753 39.2148C185.478 37.4056 184.414 35.8299 184.388 35.7326C184.388 35.4797 187.114 32.1667 187.351 32.2115C187.55 32.2115 201.541 50.4241 201.541 50.5836C201.541 50.5836 200.066 50.5836 198.271 50.5836H195.002L194.185 49.4942L194.155 49.5506ZM211.621 50.5233C209.987 50.3288 208.941 49.7257 208.399 48.6557L208.12 48.0916V41.7283C208.12 34.509 208.12 34.4798 208.957 33.5596C209.515 32.976 210.252 32.6258 211.432 32.4118C212.628 32.1784 230.528 32.1784 231.77 32.4079C233.544 32.7192 234.594 33.4974 234.983 34.7599C235.262 35.6937 236.198 35.6159 224.719 35.6159C215.621 35.6159 214.417 35.6159 214.178 35.8104L213.919 36.005V46.5878L214.477 47.0936H224.528C232.647 47.0936 234.62 47.0936 234.795 47.2881C234.994 47.4827 234.994 47.5021 234.795 48.1052C234.556 49.2724 233.859 49.9533 232.487 50.3949C231.87 50.5894 231.112 50.6089 222.076 50.6284C216.715 50.64 212 50.6128 211.601 50.6284L211.621 50.5233ZM242.918 44.6113C242.918 38.7771 242.926 38.5845 243.158 38.4659C243.516 38.2713 259.765 38.2713 260.036 38.4659C260.235 38.6604 260.235 38.7966 260.235 40.0805V41.559H254.762C249.716 41.559 249.272 41.559 249.073 41.8314C248.873 42.0259 248.853 42.2982 248.853 44.4576C248.853 46.617 248.873 46.8932 249.073 47.0819C249.272 47.2765 249.87 47.2959 258.818 47.3543H268.35V50.5058H242.914V44.481L242.918 44.6113ZM243.064 35.7268C242.865 35.5322 242.865 35.0848 242.865 34.0148C242.865 32.5947 242.885 32.4391 243.104 32.3224C243.363 32.1278 267.998 32.1278 268.348 32.3224C268.627 32.5169 268.627 35.7365 268.348 35.8435C268.348 35.8435 262.531 35.8435 255.657 35.8435C246.099 35.8435 243.126 35.8435 243.014 35.649L243.064 35.7268ZM115.171 50.5311C114.194 50.3365 113.118 49.9475 112.698 49.4028C112.498 49.1888 112.299 48.7024 112.199 48.3328C112 47.7881 112 47.613 112.199 47.3796C112.199 47.185 112.438 47.0683 112.558 47.0489C112.757 47.0489 117.518 47.0294 123.346 47.0547C132.697 47.0547 133.968 47.0547 134.181 46.8602C134.401 46.6656 134.421 46.5489 134.421 45.012C134.421 43.6503 134.421 43.3196 134.221 43.2418C134.221 43.2418 131.007 43.0472 126.413 43.0472C122.218 43.0453 118.178 43.0472 117.439 42.8527C115.526 42.6581 114.601 42.3858 113.875 41.6855C113.058 40.8878 112.899 40.3042 112.819 38.0145C112.62 33.9429 113.377 32.7231 116.086 32.1764C117.441 31.9041 134.179 31.9041 135.624 32.1648C136.88 32.3982 137.719 32.8262 138.391 33.546C139.028 34.2463 139.168 34.6354 138.929 35.0634L138.729 35.3747H128.527C119.635 35.3747 118.314 35.3747 118.214 35.6081C118.214 35.6081 118.015 36.4057 118.015 37.1644C118.013 38.2927 118.015 38.5845 118.234 38.7791C118.453 39.032 118.493 39.032 127.224 39.0709C135.128 39.0709 136.073 39.0709 136.718 39.3238C138.393 39.7907 139.162 40.5104 139.523 41.8897C139.802 42.9597 139.722 47.3582 139.323 48.2005C139.024 48.9787 138.267 49.6985 137.37 50.0486L136.653 50.321L126.242 50.3404C120.514 50.3502 115.468 50.321 115.027 50.3404L115.171 50.5311ZM147.11 50.5311C147.11 50.5311 147.11 46.4964 147.11 41.6602V32.869L147.907 32.1687L159.049 32.1706C170.935 32.1726 171.079 32.1803 172.33 32.7542C173.048 33.0849 173.606 33.6297 173.925 34.2911C174.164 34.7969 174.184 35.0303 174.184 37.8959V40.9676L173.865 41.5512C173.347 42.5045 172.709 42.9324 171.28 43.341C170.622 43.5355 169.706 43.555 162.019 43.5939C153.539 43.5939 153.481 43.5939 153.27 43.8857C153.071 44.0997 153.051 44.4498 153.051 47.3698V50.607H150.163C148.569 50.607 147.243 50.607 147.199 50.607L147.11 50.5311ZM167.543 39.9249C167.763 39.9249 168.022 39.6525 168.081 39.5164C168.081 39.3218 168.281 38.6409 168.281 37.785C168.281 36.1119 168.281 35.9563 167.344 35.717C167.045 35.717 164.53 35.5225 160.195 35.5225C153.666 35.5225 153.499 35.5283 153.262 35.7559C153.043 35.9699 153.023 36.145 153.023 37.6819C153.023 39.2187 153.023 39.4133 153.282 39.6914L153.541 40.0027H160.377C165.997 40.0027 167.284 40.0027 167.621 39.8082L167.543 39.9249ZM194.823 50.463C194.823 50.463 194.145 49.6654 193.547 48.8483C192.949 48.0507 192.252 47.2531 191.993 47.078L191.514 46.7668H183.461C176.117 46.7668 175.411 46.7668 175.425 46.5139C175.433 46.3193 176.023 45.619 176.741 44.763L178.036 43.2067H188.858L188.856 42.8566C188.856 42.5842 188.258 41.6699 186.514 39.1584C185.219 37.3298 184.2 35.7482 184.232 35.6665C184.432 35.3163 187.128 32.1609 187.293 32.1609C187.493 32.1609 201.509 50.3657 201.509 50.5972C201.509 50.7918 195.07 50.7918 194.819 50.5972L194.823 50.463ZM211.251 50.463C209.796 50.2685 208.817 49.6654 208.269 48.5137C207.99 47.9301 207.99 47.9107 207.95 41.7185C207.95 34.3864 207.95 34.3981 208.967 33.367C209.485 32.8612 209.744 32.7056 210.481 32.4721L211.378 32.1998H231.72L232.577 32.4721C233.055 32.6667 233.653 32.8807 233.912 33.0752C234.69 33.6199 235.387 35.1315 235.048 35.5264C234.849 35.7209 233.494 35.7209 224.679 35.7209C217.861 35.7209 214.374 35.7209 214.218 35.9155C213.999 36.11 213.979 36.2267 213.979 41.3314V46.6248L214.537 47.1306H224.719C236.13 47.1306 235.148 47.1306 234.921 48.0254C234.562 49.6206 233.605 50.3579 231.674 50.5564C230.439 50.7509 212.488 50.7509 211.247 50.5486L211.251 50.463ZM242.879 50.463C242.879 50.463 242.879 38.6954 242.871 38.4367C242.871 38.2421 243.807 38.2421 251.578 38.2421C259.334 38.2421 260.213 38.2616 260.279 38.4367C260.478 38.7479 260.279 41.2069 260.279 41.4501C260.08 41.6641 259.96 41.6835 254.772 41.6835C249.551 41.6835 249.382 41.6913 249.146 41.917C248.927 42.1309 248.907 42.306 248.907 44.4576C248.907 46.6053 248.925 46.7784 249.146 46.9983C249.386 47.2317 249.545 47.2317 258.816 47.2317C266.722 47.2317 268.271 47.2317 268.386 47.4263C268.386 47.6208 268.586 48.0682 268.386 49.0604V50.5194H255.663C248.668 50.535 242.904 50.5136 242.859 50.5194L242.879 50.463ZM242.871 35.5809C242.671 35.3085 242.871 32.4235 242.891 32.2504C242.891 32.0558 245.633 32.0558 255.815 32.0558H268.641V35.5964H255.789C244.148 35.5964 242.93 35.6081 242.865 35.4019L242.871 35.5809Z" fill="white"/>
<path d="M313 31.9707C306.935 34.5598 294.195 38.1393 281.81 62.8138C286.455 45.8501 297.774 33.5129 300.871 31.9707H313Z" fill="white"/>
<path d="M287.702 31.9707H277.305L290.301 40.6345L292.9 37.169L287.702 31.9707Z" fill="white"/>
</svg>
