<svg width="1431" height="1241" viewBox="0 0 1431 1241" fill="none" xmlns="http://www.w3.org/2000/svg">
<ellipse cx="36.5995" cy="1235.88" rx="0.464243" ry="0.383456" fill="#C4C4C4"/>
<ellipse cx="67.2234" cy="1100.74" rx="0.464243" ry="0.383456" fill="#C4C4C4"/>
<ellipse cx="95.0634" cy="947.929" rx="0.464243" ry="0.383456" fill="#C4C4C4"/>
<ellipse cx="202.711" cy="1127.61" rx="0.464243" ry="0.383456" fill="#C4C4C4"/>
<ellipse cx="254.678" cy="1026.25" rx="0.464243" ry="0.383456" fill="#C4C4C4"/>
<ellipse cx="44.0236" cy="1037" rx="0.464243" ry="0.383456" fill="#C4C4C4"/>
<ellipse cx="205.495" cy="1099.2" rx="0.464243" ry="0.383456" fill="#C4C4C4"/>
<ellipse cx="96.9192" cy="1008.59" rx="0.464243" ry="0.383456" fill="#C4C4C4"/>
<ellipse cx="120.119" cy="1064.65" rx="0.464243" ry="0.383456" fill="#C4C4C4"/>
<ellipse cx="1013.31" cy="1133.37" rx="0.927995" ry="0.767878" fill="#C4C4C4"/>
<ellipse cx="1004.03" cy="1103.42" rx="0.927995" ry="0.767878" fill="#C4C4C4"/>
<ellipse cx="214.31" cy="1009.74" rx="0.927995" ry="0.767878" fill="#C4C4C4"/>
<ellipse cx="645.828" cy="847.721" rx="0.927995" ry="0.767878" fill="#C4C4C4"/>
<ellipse cx="245.862" cy="1086.53" rx="0.927995" ry="0.767878" fill="#C4C4C4"/>
<ellipse cx="216.166" cy="1073.48" rx="0.927995" ry="0.767878" fill="#C4C4C4"/>
<ellipse cx="738.628" cy="817.773" rx="0.927995" ry="0.767878" fill="#C4C4C4"/>
<ellipse cx="127.079" cy="1058.89" rx="0.927995" ry="0.767878" fill="#C4C4C4"/>
<ellipse cx="572.516" cy="975.957" rx="0.927995" ry="0.767878" fill="#C4C4C4"/>
<ellipse cx="660.212" cy="824.301" rx="0.464243" ry="0.383456" fill="#C4C4C4"/>
<ellipse cx="756.724" cy="855.783" rx="0.464243" ry="0.383456" fill="#C4C4C4"/>
<ellipse cx="1108.43" cy="849.641" rx="0.464243" ry="0.383456" fill="#C4C4C4"/>
<ellipse cx="106.199" cy="1189.04" rx="0.464243" ry="0.383456" fill="#C4C4C4"/>
<ellipse cx="1063.89" cy="1086.15" rx="0.464243" ry="0.383456" fill="#C4C4C4"/>
<ellipse cx="546.069" cy="907.999" rx="0.464243" ry="0.383456" fill="#C4C4C4"/>
<ellipse cx="1065.75" cy="1218.99" rx="0.464243" ry="0.383456" fill="#C4C4C4"/>
<ellipse cx="593.397" cy="878.82" rx="0.464243" ry="0.383456" fill="#C4C4C4"/>
<ellipse cx="586.901" cy="828.14" rx="0.464243" ry="0.383456" fill="#C4C4C4"/>
<ellipse cx="311.75" cy="1137.98" rx="0.927995" ry="0.767878" fill="#C4C4C4"/>
<ellipse cx="205.495" cy="1221.29" rx="0.464243" ry="0.383456" fill="#C4C4C4"/>
<ellipse cx="557.205" cy="831.979" rx="0.464243" ry="0.383456" fill="#C4C4C4"/>
<ellipse cx="527.509" cy="818.925" rx="0.464243" ry="0.383456" fill="#C4C4C4"/>
<ellipse cx="329.846" cy="849.641" rx="0.464243" ry="0.383456" fill="#C4C4C4"/>
<ellipse cx="320.566" cy="819.693" rx="0.464243" ry="0.383456" fill="#C4C4C4"/>
<ellipse cx="235.19" cy="834.283" rx="0.464243" ry="0.383456" fill="#C4C4C4"/>
<ellipse cx="316.854" cy="844.265" rx="0.464243" ry="0.383456" fill="#C4C4C4"/>
<ellipse cx="1240.67" cy="826.221" rx="0.927995" ry="0.767878" fill="#C4C4C4"/>
<ellipse cx="1055.54" cy="1046.98" rx="0.464243" ry="0.383456" fill="#C4C4C4"/>
<ellipse cx="145.639" cy="241.865" rx="0.927995" ry="0.767878" fill="#C4C4C4"/>
<ellipse cx="136.359" cy="211.919" rx="0.927995" ry="0.767878" fill="#C4C4C4"/>
<ellipse cx="82.0712" cy="398.895" rx="0.464243" ry="0.383456" fill="#C4C4C4"/>
<ellipse cx="190.647" cy="428.075" rx="0.464243" ry="0.383456" fill="#C4C4C4"/>
<ellipse cx="270.454" cy="408.11" rx="0.464243" ry="0.383456" fill="#C4C4C4"/>
<ellipse cx="220.806" cy="456.104" rx="0.927995" ry="0.767878" fill="#C4C4C4"/>
<ellipse cx="146.103" cy="421.164" rx="0.464243" ry="0.383456" fill="#C4C4C4"/>
<ellipse cx="196.215" cy="194.639" rx="0.464243" ry="0.383456" fill="#C4C4C4"/>
<ellipse cx="198.071" cy="327.483" rx="0.464243" ry="0.383456" fill="#C4C4C4"/>
<ellipse cx="83.9274" cy="302.911" rx="0.464243" ry="0.383456" fill="#C4C4C4"/>
<ellipse cx="77.4313" cy="252.231" rx="0.464243" ry="0.383456" fill="#C4C4C4"/>
<ellipse cx="77.4313" cy="153.942" rx="0.464243" ry="0.383456" fill="#C4C4C4"/>
<ellipse cx="187.863" cy="155.478" rx="0.464243" ry="0.383456" fill="#C4C4C4"/>
<ellipse cx="1242.07" cy="991.698" rx="0.464243" ry="0.383456" fill="#C4C4C4"/>
<ellipse cx="1121.89" cy="904.544" rx="0.927995" ry="0.767878" fill="#C4C4C4"/>
<ellipse cx="254.678" cy="958.678" rx="0.464243" ry="0.383456" fill="#C4C4C4"/>
<ellipse cx="291.334" cy="943.706" rx="0.927995" ry="0.767878" fill="#C4C4C4"/>
<ellipse cx="261.174" cy="930.268" rx="0.464243" ry="0.383456" fill="#C4C4C4"/>
<ellipse cx="448.165" cy="925.276" rx="0.927995" ry="0.767878" fill="#C4C4C4"/>
<ellipse cx="550.245" cy="854.632" rx="0.927995" ry="0.767878" fill="#C4C4C4"/>
<ellipse cx="76.0391" cy="817.006" rx="0.927995" ry="0.767878" fill="#C4C4C4"/>
<ellipse cx="1414.67" cy="1144.51" rx="0.464243" ry="0.383456" fill="#C4C4C4"/>
<ellipse cx="11.0796" cy="956.76" rx="0.927995" ry="0.767878" fill="#C4C4C4"/>
<ellipse cx="1412.82" cy="1235.88" rx="0.464243" ry="0.383456" fill="#C4C4C4"/>
<ellipse cx="52.8394" cy="482.979" rx="0.927995" ry="0.767878" fill="#C4C4C4"/>
<ellipse cx="43.5592" cy="453.032" rx="0.927995" ry="0.767878" fill="#C4C4C4"/>
<ellipse cx="42.1676" cy="747.512" rx="0.464243" ry="0.383456" fill="#C4C4C4"/>
<ellipse cx="121.975" cy="814.318" rx="0.464243" ry="0.383456" fill="#C4C4C4"/>
<ellipse cx="230.551" cy="756.727" rx="0.464243" ry="0.383456" fill="#C4C4C4"/>
<ellipse cx="152.135" cy="842.346" rx="0.927995" ry="0.767878" fill="#C4C4C4"/>
<ellipse cx="77.4313" cy="807.407" rx="0.464243" ry="0.383456" fill="#C4C4C4"/>
<ellipse cx="95.0634" cy="465.702" rx="0.464243" ry="0.383456" fill="#C4C4C4"/>
<ellipse cx="1046.26" cy="665.349" rx="0.464243" ry="0.383456" fill="#C4C4C4"/>
<ellipse cx="1010.53" cy="693.378" rx="0.927995" ry="0.767878" fill="#C4C4C4"/>
<ellipse cx="1001.71" cy="658.439" rx="0.464243" ry="0.383456" fill="#C4C4C4"/>
<ellipse cx="939.539" cy="540.186" rx="0.464243" ry="0.383456" fill="#C4C4C4"/>
<ellipse cx="851.379" cy="538.65" rx="0.464243" ry="0.383456" fill="#C4C4C4"/>
<ellipse cx="842.099" cy="508.702" rx="0.464243" ry="0.383456" fill="#C4C4C4"/>
<ellipse cx="838.387" cy="533.275" rx="0.464243" ry="0.383456" fill="#C4C4C4"/>
<ellipse cx="754.868" cy="614.669" rx="0.464243" ry="0.383456" fill="#C4C4C4"/>
<ellipse cx="756.724" cy="675.332" rx="0.464243" ry="0.383456" fill="#C4C4C4"/>
<ellipse cx="908.451" cy="720.253" rx="0.927995" ry="0.767878" fill="#C4C4C4"/>
<ellipse cx="899.171" cy="690.306" rx="0.927995" ry="0.767878" fill="#C4C4C4"/>
<ellipse cx="950.675" cy="702.975" rx="0.464243" ry="0.383456" fill="#C4C4C4"/>
<ellipse cx="166.519" cy="646.152" rx="0.464243" ry="0.383456" fill="#C4C4C4"/>
<ellipse cx="52.3756" cy="621.581" rx="0.464243" ry="0.383456" fill="#C4C4C4"/>
<ellipse cx="45.8794" cy="570.901" rx="0.464243" ry="0.383456" fill="#C4C4C4"/>
<ellipse cx="508.949" cy="577.043" rx="0.464243" ry="0.383456" fill="#C4C4C4"/>
<ellipse cx="679.7" cy="794.353" rx="0.464243" ry="0.383456" fill="#C4C4C4"/>
<ellipse cx="759.508" cy="861.158" rx="0.464243" ry="0.383456" fill="#C4C4C4"/>
<ellipse cx="1137.2" cy="803.568" rx="0.464243" ry="0.383456" fill="#C4C4C4"/>
<ellipse cx="804.052" cy="692.993" rx="0.464243" ry="0.383456" fill="#C4C4C4"/>
<ellipse cx="689.908" cy="668.421" rx="0.464243" ry="0.383456" fill="#C4C4C4"/>
<ellipse cx="683.412" cy="617.741" rx="0.464243" ry="0.383456" fill="#C4C4C4"/>
<ellipse cx="601.749" cy="666.885" rx="0.464243" ry="0.383456" fill="#C4C4C4"/>
<ellipse cx="588.756" cy="661.51" rx="0.464243" ry="0.383456" fill="#C4C4C4"/>
<ellipse cx="418.006" cy="636.17" rx="0.464243" ry="0.383456" fill="#C4C4C4"/>
<ellipse cx="611.492" cy="776.309" rx="0.927995" ry="0.767878" fill="#C4C4C4"/>
<ellipse cx="1120.5" cy="928.732" rx="0.464243" ry="0.383456" fill="#C4C4C4"/>
<ellipse cx="1122.35" cy="989.394" rx="0.464243" ry="0.383456" fill="#C4C4C4"/>
<ellipse cx="1239.74" cy="990.547" rx="0.927995" ry="0.767878" fill="#C4C4C4"/>
<ellipse cx="12.9354" cy="71.3968" rx="0.927995" ry="0.767878" fill="#C4C4C4"/>
<ellipse cx="1000.32" cy="952.921" rx="0.927995" ry="0.767878" fill="#C4C4C4"/>
<ellipse cx="1036.51" cy="937.562" rx="0.927995" ry="0.767878" fill="#C4C4C4"/>
<ellipse cx="459.301" cy="314.814" rx="0.927995" ry="0.767878" fill="#C4C4C4"/>
<ellipse cx="450.021" cy="284.867" rx="0.927995" ry="0.767878" fill="#C4C4C4"/>
<ellipse cx="584.117" cy="481.059" rx="0.464243" ry="0.383456" fill="#C4C4C4"/>
<ellipse cx="509.877" cy="267.589" rx="0.464243" ry="0.383456" fill="#C4C4C4"/>
<ellipse cx="511.733" cy="400.432" rx="0.464243" ry="0.383456" fill="#C4C4C4"/>
<ellipse cx="501.525" cy="228.427" rx="0.464243" ry="0.383456" fill="#C4C4C4"/>
<ellipse cx="635.62" cy="308.67" rx="0.927995" ry="0.767878" fill="#C4C4C4"/>
<ellipse cx="708.932" cy="426.156" rx="0.927995" ry="0.767878" fill="#C4C4C4"/>
<ellipse cx="446.309" cy="134.363" rx="0.927995" ry="0.767878" fill="#C4C4C4"/>
<ellipse cx="482.501" cy="119.005" rx="0.927995" ry="0.767878" fill="#C4C4C4"/>
<ellipse cx="1004.96" cy="864.615" rx="0.927995" ry="0.767878" fill="#C4C4C4"/>
<ellipse cx="1251.35" cy="1101.5" rx="0.464243" ry="0.383456" fill="#C4C4C4"/>
<ellipse cx="1128.39" cy="826.221" rx="0.927995" ry="0.767878" fill="#C4C4C4"/>
<ellipse cx="1427.66" cy="1103.04" rx="0.464243" ry="0.383456" fill="#C4C4C4"/>
<ellipse cx="1213.3" cy="1047.75" rx="0.464243" ry="0.383456" fill="#C4C4C4"/>
<ellipse cx="1083.84" cy="819.309" rx="0.927995" ry="0.767878" fill="#C4C4C4"/>
<ellipse cx="1300.99" cy="866.15" rx="0.927995" ry="0.767878" fill="#C4C4C4"/>
<ellipse cx="461.621" cy="39.5284" rx="0.464243" ry="0.383456" fill="#C4C4C4"/>
<ellipse cx="379.958" cy="88.6729" rx="0.464243" ry="0.383456" fill="#C4C4C4"/>
<ellipse cx="285.302" cy="73.3158" rx="0.464243" ry="0.383456" fill="#C4C4C4"/>
<ellipse cx="366.966" cy="83.2976" rx="0.464243" ry="0.383456" fill="#C4C4C4"/>
<ellipse cx="283.446" cy="164.693" rx="0.464243" ry="0.383456" fill="#C4C4C4"/>
<ellipse cx="199.462" cy="173.525" rx="0.927995" ry="0.767878" fill="#C4C4C4"/>
<ellipse cx="298.294" cy="31.8498" rx="0.464243" ry="0.383456" fill="#C4C4C4"/>
<ellipse cx="928.403" cy="385.073" rx="0.464243" ry="0.383456" fill="#C4C4C4"/>
<ellipse cx="959.027" cy="249.927" rx="0.464243" ry="0.383456" fill="#C4C4C4"/>
<ellipse cx="849.987" cy="242.633" rx="0.927995" ry="0.767878" fill="#C4C4C4"/>
<ellipse cx="885.251" cy="317.117" rx="0.927995" ry="0.767878" fill="#C4C4C4"/>
<ellipse cx="1137.67" cy="235.722" rx="0.927995" ry="0.767878" fill="#C4C4C4"/>
<ellipse cx="1107.97" cy="222.668" rx="0.927995" ry="0.767878" fill="#C4C4C4"/>
<ellipse cx="1018.88" cy="208.079" rx="0.927995" ry="0.767878" fill="#C4C4C4"/>
<ellipse cx="1126.99" cy="398.128" rx="0.464243" ry="0.383456" fill="#C4C4C4"/>
<ellipse cx="902.883" cy="105.95" rx="0.927995" ry="0.767878" fill="#C4C4C4"/>
</svg>
